<svg width="100" height="29" viewBox="0 0 100 29" fill="none" xmlns="http://www.w3.org/2000/svg">
<g clip-path="url(#clip0)">
<path d="M-0.0549316 24.1289V19.2217C-0.0549316 16.6237 1.24404 15.3248 3.84198 15.3248H7.54644V10.2251H10.866V28.0258H3.84198C1.24404 28.0258 -0.0549316 26.7268 -0.0549316 24.1289ZM3.26466 24.3677C3.26466 24.882 3.52124 25.1392 4.03442 25.1392H7.54644V18.2131H4.03442C3.52124 18.2131 3.26466 18.4685 3.26466 18.9794V24.3677Z" fill="white"/>
<path d="M17.5534 28.026C14.9555 28.026 13.6565 26.7511 13.6565 24.2012C13.6565 21.6514 14.9555 20.3759 17.5534 20.3748H20.873V18.9796C20.873 18.4676 20.6164 18.2115 20.1032 18.2115H15.0036V16.4074L16.4469 15.325H20.2957C22.8936 15.325 24.1926 16.6239 24.1926 19.2219V28.026H17.5534ZM16.9761 24.3679C16.9761 24.8822 17.2327 25.1394 17.7458 25.1394H20.873V22.9727H17.7458C17.2327 22.9727 16.9761 23.2299 16.9761 23.7442V24.3679Z" fill="white"/>
<path d="M27.4639 23.4072V10.2251H30.7835V23.744C30.7835 24.7371 31.2989 25.2818 32.3298 25.378V28.2663C29.0847 28.2663 27.4627 26.6466 27.4639 23.4072Z" fill="white"/>
<path d="M38.2407 28.026C35.6427 28.026 34.3438 26.7511 34.3438 24.2012C34.3438 21.6514 35.6427 20.3759 38.2407 20.3748H41.5602V18.9796C41.5602 18.4641 41.3025 18.2115 40.7905 18.2115H35.6908V16.4074L37.1341 15.325H40.9829C43.5809 15.325 44.8798 16.6239 44.8798 19.2219V28.026H38.2407ZM37.6633 24.3679C37.6633 24.8822 37.9199 25.1394 38.4331 25.1394H41.5602V22.9727H38.4331C37.9188 22.9727 37.6622 23.2299 37.6633 23.7442V24.3679Z" fill="white"/>
<path d="M48.0552 24.1291V19.2219C48.0552 16.6239 49.3541 15.325 51.9521 15.325H56.4194L57.8627 16.4074V18.2133H52.1445C51.6302 18.2133 51.3736 18.4693 51.3748 18.9813V24.3696C51.3748 24.8839 51.6314 25.1411 52.1445 25.1411H57.8696V26.9452L56.4263 28.0277H51.959C49.3564 28.0266 48.0552 26.727 48.0552 24.1291Z" fill="white"/>
<path d="M60.5137 24.1291V19.2219C60.5137 16.6239 61.8126 15.325 64.4106 15.325H67.7783C70.3762 15.325 71.6752 16.6239 71.6752 19.2219V24.1291C71.6752 26.727 70.3762 28.026 67.7783 28.026H64.4106C61.8126 28.026 60.5137 26.727 60.5137 24.1291ZM63.8333 24.3679C63.8333 24.8834 64.091 25.1394 64.603 25.1394H67.5858C68.099 25.1394 68.3556 24.8822 68.3556 24.3679V18.9796C68.3556 18.4676 68.099 18.2115 67.5858 18.2115H64.6047C64.0893 18.2115 63.835 18.4676 63.835 18.9796L63.8333 24.3679Z" fill="white"/>
<path d="M74.7542 24.1289V19.2217C74.7542 16.6237 76.0531 15.3248 78.6511 15.3248H82.3555V10.2251H85.6751V28.0258H78.6511C76.0531 28.0258 74.7542 26.7268 74.7542 24.1289ZM78.0737 24.3677C78.0737 24.8832 78.3315 25.1392 78.8435 25.1392H82.3555V18.2131H78.8435C78.328 18.2131 78.0737 18.4691 78.0737 18.9811V24.3677Z" fill="white"/>
<path d="M88.9465 24.1291V19.2219C88.9465 16.6239 90.2455 15.325 92.8435 15.325H95.9706C98.5686 15.325 99.8676 16.6239 99.8676 19.2219V22.9263H92.2679V24.3679C92.2679 24.8834 92.5256 25.1394 93.0376 25.1394H99.3951V26.9435L97.9517 28.026H92.8435C90.2455 28.026 88.9465 26.727 88.9465 24.1291ZM92.2679 20.3284H96.5497V18.9796C96.5497 18.4676 96.2931 18.2115 95.7799 18.2115H93.0308C92.5153 18.2115 92.261 18.4676 92.261 18.9796L92.2679 20.3284Z" fill="white"/>
<path d="M0.821289 9.85575V2.48462H3.63572C4.61167 2.48462 5.09964 2.97603 5.09964 3.95885V6.31967C5.09964 7.30249 4.61167 7.79389 3.63572 7.79389H1.28521V9.85575H0.821289ZM1.28521 7.3884H3.67696C4.31842 7.3884 4.63916 7.06652 4.63916 6.42276V3.85575C4.63916 3.21658 4.31957 2.89699 3.68039 2.89699H1.28521V7.3884Z" fill="white"/>
<path d="M6.6875 6.31946V3.95176C6.6875 2.96895 7.17891 2.47754 8.16173 2.47754H9.60503C10.581 2.47754 11.0689 2.96895 11.0689 3.95176V6.31946C11.0689 7.30228 10.581 7.79368 9.60503 7.79368H8.16173C7.17891 7.79368 6.6875 7.30228 6.6875 6.31946ZM7.15142 6.42255C7.15142 7.06631 7.47101 7.38819 8.11018 7.38819H9.64626C10.2854 7.38819 10.605 7.0686 10.605 6.42942V3.85554C10.605 3.21637 10.2854 2.89678 9.64626 2.89678H8.11018C7.47101 2.89678 7.15142 3.21637 7.15142 3.85554V6.42255Z" fill="white"/>
<path d="M12.1204 2.58771L12.1925 2.48462H12.5637L13.8214 7.3884H14.007L15.5018 2.49149H16.0585L17.5533 7.3884H17.7492L19.007 2.49149H19.3678L19.4399 2.59458L18.0894 7.80077H17.2441L15.7802 2.96916L14.3162 7.7939H13.4812L12.1204 2.58771Z" fill="white"/>
<path d="M20.4915 6.31946V3.95176C20.4915 2.96895 20.9829 2.47754 21.9657 2.47754H23.3059C24.2818 2.47754 24.7698 2.96895 24.7698 3.95176V5.32633H20.9622V6.41911C20.9622 7.06516 21.2795 7.38819 21.9141 7.38819H24.5705V7.57719L24.2818 7.79368H21.9657C20.9829 7.79368 20.4915 7.30228 20.4915 6.31946ZM20.9554 4.9174H24.3059V3.85554C24.3059 3.21637 23.9863 2.89678 23.3471 2.89678H21.9141C21.275 2.89678 20.9554 3.21637 20.9554 3.85554V4.9174Z" fill="white"/>
<path d="M26.3987 7.7939V3.05163C26.6278 2.67362 27.0505 2.48462 27.6667 2.48462H28.6461L28.9348 2.70111V2.89699H27.6152C27.4769 2.88472 27.3377 2.90333 27.2076 2.95147C27.0774 2.99961 26.9596 3.07608 26.8626 3.17534V7.7939H26.3987Z" fill="white"/>
<path d="M29.9966 6.31946V3.95176C29.9966 2.96895 30.488 2.47754 31.4708 2.47754H32.8179C33.7938 2.47754 34.2818 2.96895 34.2818 3.95176V5.32633H30.4674V6.41911C30.4674 7.05829 30.787 7.37788 31.4261 7.37788H34.0756V7.57719L33.787 7.79368H31.4708C30.488 7.79368 29.9966 7.30228 29.9966 6.31946ZM30.4605 4.9174H33.811V3.85554C33.811 3.21637 33.4914 2.89678 32.8523 2.89678H31.4193C30.7801 2.89678 30.4605 3.21637 30.4605 3.85554V4.9174Z" fill="white"/>
<path d="M35.8625 6.3194V3.9517C35.8625 2.96888 36.354 2.47747 37.3368 2.47747H39.677V0.171631H40.1409V7.8005H37.3368C36.354 7.79591 35.8625 7.30221 35.8625 6.3194ZM36.3265 6.42249C36.3265 7.06625 36.6461 7.38812 37.2852 7.38812H39.677V2.89672H37.2852C36.6461 2.89672 36.3265 3.2163 36.3265 3.85548V6.42249Z" fill="white"/>
<path d="M44.3677 7.79362V0.171631H44.8316V2.49122H47.1821C48.158 2.49122 48.646 2.98263 48.646 3.96544V6.31939C48.646 7.30221 48.158 7.79362 47.1821 7.79362H44.3677ZM44.8316 7.38125H47.2233C47.8625 7.38125 48.1821 7.06166 48.1821 6.42249V3.85548C48.1821 3.2163 47.8625 2.89672 47.2233 2.89672H44.8316V7.38125Z" fill="white"/>
<path d="M49.6565 2.58771L49.7183 2.48462H50.1204L51.873 7.3884H52.141L53.8936 2.49149H54.2956L54.3575 2.59458L51.6977 9.86262H51.2957L51.2338 9.75953L51.9761 7.80077H51.5637L49.6565 2.58771Z" fill="white"/>
</g>
<defs>
<clipPath id="clip0">
<rect width="100" height="28.3505" fill="white"/>
</clipPath>
</defs>
</svg>
