<svg width="18" height="18" viewBox="0 0 18 18" fill="none" xmlns="http://www.w3.org/2000/svg">
<path d="M6 8.25C5.58579 8.25 5.25 8.58579 5.25 9C5.25 9.41421 5.58579 9.75 6 9.75H11.9696C12.3838 9.75 12.7196 9.41421 12.7196 9C12.7196 8.58579 12.3838 8.25 11.9696 8.25H6Z"/>
<path d="M6.0304 11.2999C5.61618 11.2999 5.2804 11.6357 5.2804 12.0499C5.2804 12.4641 5.61618 12.7999 6.0304 12.7999H12C12.4142 12.7999 12.75 12.4641 12.75 12.0499C12.75 11.6357 12.4142 11.2999 12 11.2999H6.0304Z"/>
<path fill-rule="evenodd" clip-rule="evenodd" d="M3.75 2.25C2.92157 2.25 2.25 2.92157 2.25 3.75V14.25C2.25 15.0784 2.92157 15.75 3.75 15.75H14.25C15.0784 15.75 15.75 15.0784 15.75 14.25V3.75C15.75 2.92157 15.0784 2.25 14.25 2.25H3.75ZM5.25 3.75H3.75L3.75 14.25H14.25V3.75H12.75V4.5C12.75 5.74264 11.7426 6.75 10.5 6.75H7.5C6.25736 6.75 5.25 5.74264 5.25 4.5V3.75ZM6.75 3.75V4.5C6.75 4.91421 7.08579 5.25 7.5 5.25H10.5C10.9142 5.25 11.25 4.91421 11.25 4.5V3.75H6.75Z"/>
</svg>
