<svg width="28" height="28" viewBox="0 0 28 28" fill="none" xmlns="http://www.w3.org/2000/svg">
<path d="M16.3333 21.0002V18.6668H18.6667V16.3335H16.3333V14.0002H14V16.3335H11.6667V18.6668H14V21.0002H16.3333Z"/>
<path fill-rule="evenodd" clip-rule="evenodd" d="M21 2.3335C22.933 2.3335 24.5 3.9005 24.5 5.8335V22.1668C24.5 24.0998 22.933 25.6668 21 25.6668H7C5.067 25.6668 3.5 24.0998 3.5 22.1668V10.5002C3.5 5.98984 7.15634 2.3335 11.6667 2.3335H21ZM21 4.66683H12.8333V10.5002H5.83333V22.1668C5.83333 22.8112 6.35567 23.3335 7 23.3335H21C21.6443 23.3335 22.1667 22.8112 22.1667 22.1668V5.8335C22.1667 5.18916 21.6443 4.66683 21 4.66683ZM10.5 4.78352C8.62012 5.16511 7.06852 6.45073 6.31872 8.16683H10.5V4.78352Z"/>
</svg>
