<svg width="20" height="20" viewBox="0 0 20 20" fill="none" xmlns="http://www.w3.org/2000/svg">
<path fill-rule="evenodd" clip-rule="evenodd" d="M6.43988 8.56014C6.43988 10.4011 7.93226 11.8935 9.77321 11.8935C11.6142 11.8935 13.1065 10.4011 13.1065 8.56014C13.1065 6.71919 11.6142 5.22681 9.77321 5.22681C7.93226 5.22681 6.43988 6.71919 6.43988 8.56014ZM8.10655 8.56014C8.10655 9.48062 8.85274 10.2268 9.77321 10.2268C10.6937 10.2268 11.4399 9.48062 11.4399 8.56014C11.4399 7.63967 10.6937 6.89347 9.77321 6.89347C8.85274 6.89347 8.10655 7.63967 8.10655 8.56014Z"/>
<path fill-rule="evenodd" clip-rule="evenodd" d="M15.1715 13.7653C18.1715 10.9091 18.288 6.16178 15.4319 3.16185C12.5757 0.16191 7.82838 0.0453598 4.82844 2.90152C1.82851 5.75769 1.71196 10.505 4.56812 13.5049L9.73966 18.9368L15.1715 13.7653ZM5.7752 12.3557L9.79751 16.5805L14.0223 12.5582C16.3556 10.3367 16.4462 6.64436 14.2248 4.31108C12.0033 1.97779 8.31096 1.88714 5.97768 4.1086C3.64439 6.33007 3.55374 10.0224 5.7752 12.3557Z"/>
</svg>
