<svg width="72" height="72" viewBox="0 0 72 72" fill="none" xmlns="http://www.w3.org/2000/svg">
<path d="M36 51C29.3726 51 24 45.6274 24 39H48C48 45.6274 42.6274 51 36 51Z"/>
<path d="M42 30C42 31.6569 43.3431 33 45 33C46.6569 33 48 31.6569 48 30C48 28.3431 46.6569 27 45 27C43.3431 27 42 28.3431 42 30Z"/>
<path d="M27 33C25.3431 33 24 31.6569 24 30C24 28.3431 25.3431 27 27 27C28.6569 27 30 28.3431 30 30C30 31.6569 28.6569 33 27 33Z"/>
<path fill-rule="evenodd" clip-rule="evenodd" d="M6 36C6 52.5685 19.4315 66 36 66C52.5685 66 66 52.5685 66 36C66 19.4315 52.5685 6 36 6C19.4315 6 6 19.4315 6 36ZM12 36C12 49.2548 22.7452 60 36 60C49.2548 60 60 49.2548 60 36C60 22.7452 49.2548 12 36 12C22.7452 12 12 22.7452 12 36Z"/>
</svg>
