<svg width="72" height="72" viewBox="0 0 72 72" fill="none" xmlns="http://www.w3.org/2000/svg">
<path d="M33 15.2127C22.8231 16.6684 15 25.4206 15 36C15 47.598 24.402 57 36 57C47.598 57 57 47.598 57 36C57 29.8848 54.3862 24.3801 50.2148 20.5421L54.4603 16.2966C59.7162 21.2229 63 28.228 63 36C63 50.9117 50.9117 63 36 63C21.0883 63 9 50.9117 9 36C9 21.0883 21.0883 9 36 9C37.014 9 38.015 9.0559 39 9.16479V27.2565H33V15.2127Z"/>
<path d="M48.8787 26.1212C50.0503 27.2928 50.0503 29.1923 48.8787 30.3639L40.3934 38.8492C39.2218 40.0207 37.3223 40.0207 36.1508 38.8492C34.9792 37.6776 34.9792 35.7781 36.1508 34.6065L44.636 26.1212C45.8076 24.9497 47.7071 24.9497 48.8787 26.1212Z"/>
</svg>
