<svg width="28" height="28" viewBox="0 0 28 28" fill="none" xmlns="http://www.w3.org/2000/svg">
<path fill-rule="evenodd" clip-rule="evenodd" d="M9.33325 12.8333C11.9106 12.8333 13.9999 10.744 13.9999 8.16667C13.9999 5.58934 11.9106 3.5 9.33325 3.5C6.75592 3.5 4.66659 5.58934 4.66659 8.16667C4.66659 10.744 6.75592 12.8333 9.33325 12.8333ZM9.33325 10.5C10.6219 10.5 11.6666 9.45533 11.6666 8.16667C11.6666 6.878 10.6219 5.83333 9.33325 5.83333C8.04459 5.83333 6.99992 6.878 6.99992 8.16667C6.99992 9.45533 8.04459 10.5 9.33325 10.5Z"/>
<path d="M12.8333 16.3333C13.4776 16.3333 13.9999 16.8557 13.9999 17.5V24.5H16.3333V17.5C16.3333 15.567 14.7662 14 12.8333 14H5.83325C3.90026 14 2.33325 15.567 2.33325 17.5V24.5H4.66659V17.5C4.66659 16.8557 5.18892 16.3333 5.83325 16.3333H12.8333Z"/>
<path d="M20.9999 8.16667H23.3333V10.5H25.6666V12.8333H23.3333V15.1667H20.9999V12.8333H18.6666V10.5H20.9999V8.16667Z"/>
</svg>
