<svg width="92" height="82" viewBox="0 0 92 82" fill="none" xmlns="http://www.w3.org/2000/svg">
<path d="M43.5074 21.7752C43.3936 21.8335 43.2785 21.8918 43.1646 21.95C42.4841 22.3023 41.8187 22.6887 41.1647 23.103C39.8568 23.9317 38.5943 24.868 37.404 25.9272C35.1283 27.9469 33.1196 30.4391 31.632 33.3533C30.7706 31.5287 28.9174 30.2668 26.7695 30.2668C23.8006 30.2668 21.3934 32.6779 21.3934 35.6516C21.3934 38.6253 23.8006 41.0365 26.7695 41.0365C27.6929 41.0365 28.562 40.8034 29.3209 40.3928C29.1211 41.5572 28.9971 42.7406 28.9541 43.9278C28.8352 47.3691 29.3121 50.8205 30.1849 54.097C30.233 54.2794 30.4341 54.3745 30.6061 54.2997L40.6689 49.9221C40.846 49.8448 40.9079 49.6269 40.8004 49.4673C39.4608 47.4578 38.3919 45.3266 37.6848 43.0625C37.3395 41.8753 37.0486 40.6437 36.9524 39.3894C36.9372 39.2323 36.9145 39.0726 36.9044 38.9155L36.8879 38.4416L36.8702 37.9627L36.8613 37.7321C36.8613 37.7245 36.8613 37.7169 36.8613 37.7093L36.9006 36.5234C36.9006 36.5158 36.9018 36.5094 36.9018 36.5018L36.9992 35.5401C37.3231 32.9389 38.2313 30.2807 39.6556 27.7961C40.3653 26.5531 41.1964 25.352 42.1261 24.2066C42.5903 23.6339 43.0811 23.0764 43.5985 22.5405C43.6845 22.4505 43.7718 22.3618 43.8591 22.2731C44.1083 22.0223 43.8199 21.6181 43.5074 21.7752Z" fill="#003B99"/>
<path d="M38.8623 37.9965C38.7054 38.1004 38.6776 38.3209 38.8041 38.4615L46.1457 46.6276C46.2747 46.7708 46.5011 46.7607 46.6188 46.6086C48.095 44.6979 49.7722 43.0051 51.6911 41.6139C52.7056 40.9082 53.7783 40.2417 54.9357 39.7501C55.0799 39.6855 55.2228 39.6132 55.3695 39.5537L55.8135 39.3877L56.4763 39.1381C56.4827 39.1356 56.4902 39.133 56.4978 39.1305L56.7167 39.0659L57.6337 38.7909C57.6401 38.7884 57.6477 38.7871 57.654 38.7859L58.5951 38.573C61.1603 38.0548 63.9647 38.0713 66.769 38.6351C68.1718 38.9138 69.5721 39.3206 70.9509 39.84C71.6402 40.0998 72.3246 40.3874 72.9962 40.7092C73.1088 40.7625 73.2201 40.8169 73.3314 40.8714C73.6451 41.026 73.9361 40.6231 73.6881 40.3773C73.5971 40.2873 73.506 40.1974 73.4137 40.1074C72.8634 39.574 72.2866 39.0633 71.687 38.5743C70.4879 37.5948 69.1989 36.694 67.8189 35.9008C65.1841 34.3816 62.1862 33.2666 58.9556 32.7788C60.409 31.3813 61.0149 29.2197 60.3318 27.1797C59.3882 24.3605 56.341 22.8401 53.5265 23.7853C50.7121 24.7305 49.1942 27.7828 50.1378 30.602C50.4313 31.4788 50.9284 32.2302 51.5583 32.8206C50.392 33.0005 49.2334 33.259 48.0962 33.596C44.8011 34.5767 41.6856 36.1263 38.8623 37.9965Z" fill="#003B99"/>
<path d="M73.7834 57.1583C76.113 55.3148 76.5089 51.9292 74.6687 49.5953C72.8285 47.2614 69.4492 46.8649 67.1196 48.7084C66.3949 49.2824 65.8587 50.0046 65.5172 50.7978C64.9531 49.7601 64.3182 48.754 63.6176 47.7974C61.5814 45.0226 59.0722 42.6114 56.3593 40.5816C56.2088 40.4688 55.9913 40.5182 55.9028 40.6842L50.7174 50.3682C50.6263 50.538 50.7123 50.7484 50.8957 50.8079C53.1899 51.5529 55.3475 52.5615 57.3028 53.8995C58.3083 54.6166 59.2985 55.4022 60.151 56.3272C60.2597 56.4412 60.3773 56.5514 60.4823 56.6693L60.7884 57.0316L61.2475 57.5727C61.2525 57.5777 61.2563 57.5841 61.2614 57.5904L61.3954 57.7741L61.9633 58.5457C61.9671 58.5508 61.9709 58.5571 61.9747 58.5635L62.4932 59.3795C63.8477 61.6209 64.7811 64.2703 65.201 67.1046C65.4135 68.5212 65.5045 69.9796 65.4843 71.4544C65.4742 72.1918 65.435 72.9343 65.3604 73.6768C65.3477 73.801 65.3351 73.9239 65.3212 74.048C65.2819 74.3965 65.7587 74.5346 65.9067 74.2166C65.9611 74.1 66.0142 73.9834 66.0673 73.8669C66.3823 73.1674 66.6656 72.4516 66.9236 71.7205C67.437 70.2583 67.8481 68.7391 68.1263 67.1693C68.6613 64.1714 68.6954 60.9683 68.0593 57.7589C69.8628 58.6522 72.0975 58.4925 73.7834 57.1583Z" fill="#003B99"/>
<path d="M55.4184 79.2192C57.1857 76.8294 56.6847 73.4575 54.2989 71.686C53.5563 71.1348 52.7201 70.8054 51.8662 70.6824C52.7189 69.8651 53.5222 68.9895 54.261 68.0607C56.4026 65.3667 58.0712 62.3091 59.3173 59.1552C59.3868 58.9791 59.2831 58.7826 59.0984 58.7408L48.4102 56.2572C48.223 56.2141 48.0433 56.351 48.0332 56.5449C47.9156 58.9575 47.5082 61.3081 46.729 63.5497C46.3001 64.7104 45.803 65.8723 45.135 66.938C45.0541 67.0736 44.9782 67.2155 44.8921 67.3486L44.6239 67.7389L44.2229 68.3243C44.2191 68.3306 44.2141 68.337 44.2103 68.342L43.4728 69.2721C43.469 69.2772 43.4639 69.2835 43.4589 69.2886L42.8086 70.0033C41.0022 71.9002 38.6935 73.4942 36.0711 74.641C34.7618 75.2176 33.3804 75.6864 31.9534 76.0526C31.2399 76.2351 30.5138 76.3922 29.7801 76.5139C29.6574 76.5341 29.5347 76.5544 29.412 76.5734C29.0666 76.6266 29.0578 77.1234 29.4018 77.1829C29.5284 77.2045 29.6549 77.226 29.7814 77.2463C30.5378 77.3679 31.3019 77.4554 32.0736 77.5124C33.6169 77.6277 35.1881 77.6264 36.7744 77.4858C39.8029 77.2197 42.8984 76.415 45.8257 74.9616C45.4336 76.9409 46.1711 79.0608 47.8978 80.3419C50.2837 82.1109 53.6512 81.6091 55.4184 79.2192Z" fill="#003B99"/>
<path d="M20.8563 50.5534C19.8659 49.5208 18.9488 48.3842 18.1151 47.1678C17.6977 46.5596 17.3018 45.9311 16.9337 45.2824C16.8729 45.1747 16.8122 45.0657 16.7515 44.9568C16.582 44.6501 16.114 44.8136 16.1772 45.1582C16.2 45.2849 16.224 45.4104 16.2481 45.5371C16.3935 46.2897 16.577 47.0386 16.7882 47.7849C17.212 49.2749 17.7546 50.7536 18.4339 52.1955C19.7267 54.9514 21.5483 57.5844 23.9188 59.836C21.929 60.1489 20.1973 61.5744 19.5914 63.6385C18.754 66.4919 20.3845 69.4847 23.2332 70.3223C26.0819 71.1611 29.0697 69.5278 29.9059 66.6744C30.1665 65.7874 30.188 64.8865 30.0083 64.0414C31.0671 64.5622 32.1664 65.0145 33.2909 65.3896C36.5545 66.4742 39.994 66.9899 43.3777 67.0748C43.5662 67.0798 43.7142 66.9138 43.6915 66.7263L42.3354 55.8206C42.3114 55.6293 42.1204 55.5077 41.937 55.5647C39.6347 56.2856 37.292 56.7127 34.924 56.7532C33.6894 56.7507 32.4282 56.6822 31.1987 56.4212C31.0443 56.3921 30.885 56.3693 30.7306 56.3338L30.2727 56.216L29.8085 56.0981L29.5858 56.0411C29.5783 56.0398 29.5719 56.0373 29.5643 56.0348L29.348 55.9625L28.4385 55.6623C28.4322 55.6597 28.4259 55.6572 28.4183 55.6546L27.524 55.2897C25.1243 54.2444 22.8347 52.6225 20.8563 50.5534Z" fill="#003B99"/>
<path d="M78.4703 25.1812C76.3781 24.1676 74.3276 23.078 72.3226 21.9249C70.3138 20.777 68.3582 19.548 66.4494 18.2645C65.4893 17.6309 64.557 16.9581 63.6209 16.2967C63.1567 15.9597 62.6988 15.6138 62.2396 15.273L61.5514 14.7598L60.876 14.2289C60.4269 13.8741 59.974 13.527 59.53 13.1697L58.2107 12.0787C57.9931 11.8963 57.7692 11.7202 57.5554 11.5314L56.9116 10.9701C56.4828 10.5938 56.0514 10.2263 55.6276 9.84747C54.5372 8.86171 53.4709 7.85188 52.4285 6.8243C52.4374 6.8167 52.4463 6.8091 52.4551 6.8015L49.9353 4.27754C48.6539 2.92181 47.413 1.53312 46.2188 0.1115C46.0076 -0.139375 45.7774 0.1115 45.7774 0.1115C44.5833 1.53312 43.3423 2.92054 42.0609 4.27754L39.5424 6.80276C39.55 6.81037 39.5601 6.81797 39.5689 6.82557C38.5266 7.85314 37.4603 8.86298 36.3699 9.84874C35.9474 10.2289 35.5147 10.5963 35.0859 10.9713L34.4421 11.5326C34.2283 11.7214 34.0044 11.8976 33.7868 12.08L32.4674 13.1709C32.0234 13.5282 31.5706 13.8754 31.1215 14.2302L30.446 14.7611L29.7579 15.2742C29.5542 15.425 29.3518 15.577 29.1482 15.7278V8.54495H23.915V19.3414C22.5274 20.2385 21.1144 21.1026 19.6762 21.9262C17.6699 23.0792 15.6207 24.1689 13.5284 25.1825C11.4362 26.1974 9.30093 27.1388 7.12646 27.9979C4.94946 28.8455 2.73957 29.6374 0.466431 30.2418C2.81294 30.0264 5.14426 29.6108 7.4642 29.1319C9.78161 28.6403 12.0876 28.0587 14.3734 27.3922C16.6605 26.7245 18.9286 25.9719 21.1751 25.142C23.423 24.3159 25.6417 23.396 27.8364 22.4052C28.9382 21.9186 30.0197 21.3877 31.1089 20.8632C31.649 20.5958 32.1854 20.3158 32.7242 20.0421L33.5325 19.6278L34.3295 19.1945C34.862 18.9056 35.3958 18.6192 35.9258 18.324L37.5033 17.4143C37.7651 17.261 38.0333 17.114 38.2913 16.9556L39.0693 16.4805C39.5867 16.1612 40.1091 15.8469 40.6239 15.5226C42.448 14.362 44.2404 13.1405 46 11.8659C47.7596 13.1393 49.5533 14.362 51.3761 15.5226C51.8909 15.8482 52.4134 16.1612 52.9307 16.4805L53.7087 16.9556C53.9667 17.114 54.2337 17.261 54.4968 17.4143L56.0742 18.324C56.6042 18.618 57.138 18.9043 57.6706 19.1945L58.4675 19.6278L59.2758 20.0421C59.8147 20.3158 60.351 20.5945 60.8911 20.8632C61.9803 21.3864 63.0618 21.9186 64.1636 22.4052C66.3583 23.396 68.577 24.3159 70.8249 25.142C73.0715 25.9719 75.3395 26.7245 77.6266 27.3922C79.9124 28.06 82.2184 28.6403 84.5358 29.1319C86.8558 29.6108 89.1871 30.0264 91.5336 30.2418C89.2604 29.6387 87.0506 28.8455 84.8736 27.9979C82.6978 27.1376 80.5626 26.1974 78.4703 25.1812Z" fill="#003B99"/>
</svg>
