<svg width="20" height="20" viewBox="0 0 20 20" fill="none" xmlns="http://www.w3.org/2000/svg">
<path d="M13.3333 10.8333C13.7936 10.8333 14.1667 10.4602 14.1667 10C14.1667 9.53976 13.7936 9.16667 13.3333 9.16667C12.8731 9.16667 12.5 9.53976 12.5 10C12.5 10.4602 12.8731 10.8333 13.3333 10.8333Z"/>
<path d="M13.3333 14.1667C13.7936 14.1667 14.1667 13.7936 14.1667 13.3333C14.1667 12.8731 13.7936 12.5 13.3333 12.5C12.8731 12.5 12.5 12.8731 12.5 13.3333C12.5 13.7936 12.8731 14.1667 13.3333 14.1667Z"/>
<path d="M10.8333 13.3333C10.8333 13.7936 10.4602 14.1667 10 14.1667C9.53976 14.1667 9.16667 13.7936 9.16667 13.3333C9.16667 12.8731 9.53976 12.5 10 12.5C10.4602 12.5 10.8333 12.8731 10.8333 13.3333Z"/>
<path d="M6.66667 14.1667C7.1269 14.1667 7.5 13.7936 7.5 13.3333C7.5 12.8731 7.1269 12.5 6.66667 12.5C6.20643 12.5 5.83333 12.8731 5.83333 13.3333C5.83333 13.7936 6.20643 14.1667 6.66667 14.1667Z"/>
<path d="M10.8333 10C10.8333 10.4602 10.4602 10.8333 10 10.8333C9.53976 10.8333 9.16667 10.4602 9.16667 10C9.16667 9.53976 9.53976 9.16667 10 9.16667C10.4602 9.16667 10.8333 9.53976 10.8333 10Z"/>
<path d="M6.66667 10.8333C7.1269 10.8333 7.5 10.4602 7.5 10C7.5 9.53976 7.1269 9.16667 6.66667 9.16667C6.20643 9.16667 5.83333 9.53976 5.83333 10C5.83333 10.4602 6.20643 10.8333 6.66667 10.8333Z"/>
<path d="M13.3333 5.83333C13.7936 5.83333 14.1667 6.20643 14.1667 6.66667C14.1667 7.1269 13.7936 7.5 13.3333 7.5H6.66667C6.20643 7.5 5.83333 7.1269 5.83333 6.66667C5.83333 6.20643 6.20643 5.83333 6.66667 5.83333H13.3333Z"/>
<path fill-rule="evenodd" clip-rule="evenodd" d="M15 2.5C16.3807 2.5 17.5 3.61929 17.5 5V15C17.5 16.3807 16.3807 17.5 15 17.5H5C3.61929 17.5 2.5 16.3807 2.5 15V5C2.5 3.61929 3.61929 2.5 5 2.5H15ZM5 4.16667H15C15.4602 4.16667 15.8333 4.53976 15.8333 5V15C15.8333 15.4602 15.4602 15.8333 15 15.8333H5C4.53976 15.8333 4.16667 15.4602 4.16667 15V5C4.16667 4.53976 4.53976 4.16667 5 4.16667Z"/>
</svg>
