<svg width="24" height="24" viewBox="0 0 24 24" fill="none" xmlns="http://www.w3.org/2000/svg">
<path d="M17.7747 4.81108C18.1652 4.42056 18.7984 4.42056 19.1889 4.81108C19.5794 5.20161 19.5794 5.83477 19.1889 6.2253L13.4142 12L19.1889 17.7747C19.5794 18.1652 19.5794 18.7984 19.1889 19.1889C18.7983 19.5794 18.1652 19.5794 17.7746 19.1889L12 13.4142L6.22529 19.1889C5.83477 19.5794 5.2016 19.5794 4.81108 19.1889C4.42056 18.7984 4.42056 18.1652 4.81108 17.7747L10.5858 12L4.81102 6.2253C4.4205 5.83477 4.4205 5.20161 4.81102 4.81108C5.20154 4.42056 5.83471 4.42056 6.22523 4.81108L12 10.5858L17.7747 4.81108Z" fill="white"/>
</svg>
