<svg width="28" height="28" viewBox="0 0 28 28" fill="none" xmlns="http://www.w3.org/2000/svg">
<path fill-rule="evenodd" clip-rule="evenodd" d="M21 26.6916C22.933 26.6916 24.5 25.1246 24.5 23.1916V11.525C24.5 11.4854 24.498 11.4464 24.4942 11.4078H24.5C24.5 10.7359 24.2331 10.0914 23.7579 9.61627L16.4749 2.33323C15.108 0.966397 12.892 0.966397 11.5251 2.33323L4.24208 9.61629C3.76693 10.0914 3.5 10.7359 3.5 11.4078H3.50581C3.50197 11.4464 3.5 11.4854 3.5 11.525V23.1916C3.5 25.1246 5.067 26.6916 7 26.6916H21ZM13.175 3.98315L5.83333 11.3249V23.1916C5.83333 23.836 6.35567 24.3583 7 24.3583H10.5V18.525C10.5 16.592 12.067 15.025 14 15.025C15.933 15.025 17.5 16.592 17.5 18.525V24.3583H21C21.6443 24.3583 22.1667 23.836 22.1667 23.1916V11.3249L14.825 3.98315C14.3694 3.52754 13.6307 3.52754 13.175 3.98315Z"/>
</svg>
