<svg width="72" height="72" viewBox="0 0 72 72" fill="none" xmlns="http://www.w3.org/2000/svg">
<path d="M48.728 19.0295C49.8996 17.8579 51.7991 17.8579 52.9707 19.0295C54.1423 20.2011 54.1423 22.1006 52.9707 23.2721L23.2722 52.9706C22.1006 54.1422 20.2011 54.1422 19.0296 52.9706C17.858 51.799 17.858 49.8996 19.0296 48.728L48.728 19.0295Z"/>
<path d="M29.6362 29.6361C27.293 31.9792 23.494 31.9792 21.1509 29.6361C18.8077 27.293 18.8077 23.494 21.1509 21.1508C23.494 18.8077 27.293 18.8077 29.6362 21.1508C31.9793 23.494 31.9793 27.293 29.6362 29.6361Z"/>
<path d="M42.3641 50.8493C44.7072 53.1924 48.5062 53.1924 50.8494 50.8493C53.1925 48.5062 53.1925 44.7072 50.8494 42.364C48.5062 40.0209 44.7072 40.0209 42.3641 42.364C40.0209 44.7072 40.0209 48.5062 42.3641 50.8493Z"/>
</svg>
