<svg width="72" height="72" viewBox="0 0 72 72" fill="none" xmlns="http://www.w3.org/2000/svg">
<path fill-rule="evenodd" clip-rule="evenodd" d="M21 16.5H12C8.68629 16.5 6 19.1863 6 22.5V58.5C6 61.8137 8.68629 64.5 12 64.5H60C63.3137 64.5 66 61.8137 66 58.5V22.5C66 19.1863 63.3137 16.5 60 16.5H51C51 11.5294 46.9706 7.5 42 7.5H30C25.0294 7.5 21 11.5294 21 16.5ZM30 13.5H42C43.6569 13.5 45 14.8431 45 16.5H27C27 14.8431 28.3431 13.5 30 13.5ZM12 22.5H60V28.5H12V22.5ZM60 58.5V34.5H51V40.5H39V34.5H33V40.5H21V34.5H12V58.5H60Z" />
</svg>
